<svg xmlns="http://www.w3.org/2000/svg" xmlns:xlink="http://www.w3.org/1999/xlink" width="1024" height="1024" viewBox="0 0 1024 1024"><defs><linearGradient id="c" x1="50%" x2="50%" y1="0%" y2="100%"><stop offset="0%" stop-color="#C2DAE1"/><stop offset="100%" stop-color="#74768C"/></linearGradient><filter id="b" width="110.4%" height="110.4%" x="-5.2%" y="-3.9%" filterUnits="objectBoundingBox"><feOffset dy="11" in="SourceAlpha" result="shadowOffsetOuter1"/><feGaussianBlur in="shadowOffsetOuter1" result="shadowBlurOuter1" stdDeviation="12.5"/><feColorMatrix in="shadowBlurOuter1" values="0 0 0 0 0 0 0 0 0 0 0 0 0 0 0 0 0 0 0.35 0"/></filter><path id="a" d="M823.943901,227.279 C823.894902,219.039 823.798902,210.8 823.575904,202.562 C823.091908,184.61 822.032915,166.503 818.839939,148.75 C815.601963,130.741 810.314002,113.98 801.981064,97.617 C793.789124,81.534 783.088204,66.817 770.320298,54.057 C757.555393,41.298 742.834502,30.605 726.745621,22.417 C710.365742,14.083 693.586866,8.796 675.558,5.56 C657.803131,2.371 639.691265,1.314 621.738398,0.829 C613.495459,0.607 605.25252,0.512 597.006581,0.461 C587.219653,0.402 577.431726,0.406 567.643798,0.406 L453.99664,4.26325641e-14 L368.997269,4.26325641e-14 L257.361095,0.407 C247.554168,0.407 237.74724,0.402 227.940313,0.461 C219.679374,0.512 211.420435,0.607 203.161496,0.829 C185.166629,1.315 167.013764,2.373 149.216896,5.564 C131.164029,8.801 114.360154,14.085 97.9572749,22.414 C81.8353943,30.601 67.0825035,41.296 54.2905981,54.057 C41.5006928,66.816 30.7797722,81.529 22.5728329,97.61 C14.2168948,113.981 8.91893398,130.751 5.67295801,148.771 C2.47698167,166.516 1.4179895,184.618 0.930993109,202.562 C0.708994752,210.801 0.612995463,219.039 0.562995833,227.279 C0.502996277,237.063 2.84217094e-14,249.217 2.84217094e-14,259 L2.84217094e-14,369.09 L2.84217094e-14,455 L0.50799624,567.428 C0.50799624,577.224 0.503996269,587.02 0.562995833,596.816 C0.612995463,605.069 0.708994752,613.319 0.931993101,621.568 C1.4179895,639.544 2.47898165,657.676 5.67795797,675.454 C8.92293395,693.487 14.2188948,710.271 22.5688329,726.656 C30.7767722,742.761 41.4996928,757.498 54.2905981,770.275 C67.0815035,783.051 81.8303943,793.759 97.950275,801.959 C114.361154,810.304 131.174029,815.597 149.237895,818.838 C167.026764,822.032 185.172629,823.09 203.161496,823.576 C211.420435,823.798 219.679374,823.893 227.941313,823.944 C237.74824,824.003 247.554168,824.003 257.361095,824.003 L370.006261,824.003 L455.216631,824.003 L567.643798,824.003 C577.431726,824.003 587.219653,824.003 597.007581,823.944 C605.25252,823.893 613.495459,823.798 621.738398,823.576 C639.698265,823.089 657.816131,822.03 675.578999,818.835 C693.596866,815.593 710.367742,810.302 726.738621,801.961 C742.830502,793.763 757.554393,783.053 770.320298,770.275 C783.086204,757.5 793.786124,742.765 801.978064,726.663 C810.316002,710.27 815.603963,693.477 818.843939,675.432 C822.033915,657.663 823.091908,639.537 823.576904,621.568 C823.798902,613.318 823.894902,605.068 823.943901,596.816 C824,587.02 824,577.224 824,567.428 C824,567.428 824,456.985 824,455 L824,369 C824,367.534 824,256.628 824,256.628 C824,246.845 824,237.062 823.943901,227.279 Z"/></defs><g fill="none" fill-rule="evenodd" transform="translate(100 100)"><mask id="d" fill="#fff"><use xlink:href="#a"/></mask><use xlink:href="#a" fill="#000" filter="url(#b)"/><use xlink:href="#a" fill="url(#c)"/><path fill="#000" d="M229.392659,22.9998 L594.607141,22.9998 C666.3744,22.9998 692.398942,30.4722617 718.635979,44.5039827 C744.873016,58.5357036 765.463996,79.1266838 779.495717,105.363721 C793.527438,131.600758 800.9999,157.6253 800.9999,229.392559 L800.9999,594.607041 C800.9999,666.3743 793.527438,692.398842 779.495717,718.635879 C765.463996,744.872916 744.873016,765.463896 718.635979,779.495617 C692.398942,793.527338 666.3744,800.9998 594.607141,800.9998 L229.392659,800.9998 C157.6254,800.9998 131.600858,793.527338 105.363821,779.495617 C79.1267838,765.463896 58.5358036,744.872916 44.5040827,718.635879 C30.4723617,692.398842 22.9999,666.3743 22.9999,594.607041 L22.9999,229.392559 C22.9999,157.6253 30.4723617,131.600758 44.5040827,105.363721 C58.5358036,79.1266838 79.1267838,58.5357036 105.363821,44.5039827 C131.600858,30.4722617 157.6254,22.9998 229.392659,22.9998 Z" mask="url(#d)"/><path fill="#262626" d="M214.671341,83.9998 L607.959812,83.9998 C653.873027,83.9998 670.522269,88.780319 687.307454,97.7571342 C704.092639,106.73395 717.26575,119.907061 726.242566,136.692246 L726.776134,137.699429 C735.40869,154.155107 739.9999,171.044937 739.9999,216.039888 L739.9999,607.959712 L739.9999,610.679624 C739.807001,654.538951 735.039845,670.857872 726.242566,687.307354 C717.26575,704.092539 704.092639,717.26565 687.307454,726.242466 L686.300271,726.776034 C669.844593,735.40859 652.954763,739.9998 607.959812,739.9998 L216.039988,739.9998 L213.320076,739.9998 C169.460749,739.806901 153.141828,735.039745 136.692346,726.242466 C119.907161,717.26565 106.73405,704.092539 97.7572342,687.307354 L97.2236656,686.300171 C88.6791977,670.012408 84.094019,653.299308 83.9999,609.328359 L83.9999,216.039888 C83.9999,170.126673 88.780419,153.477431 97.7572342,136.692246 C106.73405,119.907061 119.907161,106.73395 136.692346,97.7571342 L137.699529,97.2235656 C153.987292,88.6790977 170.700392,84.093919 214.671341,83.9998 Z" mask="url(#d)"/><text fill="#716DFF" font-family="AzeretMonoRoman-Medium, Azeret Mono" font-size="238" font-weight="400" mask="url(#d)">
                        <tspan x="137" y="320">$W</tspan>
                    </text></g></svg>